<svg version="1.2" xmlns="http://www.w3.org/2000/svg" viewBox="0 0 85 86" width="85" height="86">
	<title>brincalhao</title>
	<style>
		.s0 { fill: #d9d9d9 } 
		.s1 { fill: #4a90e2 } 
		.s2 { fill: #ffffff } 
	</style>
	<path fill-rule="evenodd" class="s0" d="m61.1 76.2c-18.7 10.3-42.2 3.5-52.5-15.2-10.3-18.7-3.5-42.2 15.3-52.5 18.7-10.3 42.2-3.5 52.5 15.2 10.3 18.8 3.5 42.2-15.3 52.5z"/>
	<path class="s1" d="m34.7 46c10.3 18.7 6.7 34.5 6.7 34.5 0.9 1.7-22.5-0.8-32.8-19.5-10.3-18.7 0.2-39.8 1.1-38.1 0 0 14.7 4.4 25 23.1z"/>
	<path class="s1" d="m48 36.3c-9.8-19-2.1-32-2.1-32-0.9-1.7 19.6-0.2 31.4 21.1 9.9 18-2.2 40.1-3.1 38.4 0 0-16.4-8.6-26.2-27.5z"/>
	<path fill-rule="evenodd" class="s2" d="m65.6 62.6l3.8-5 2.5 1.9-3.8 5z"/>
	<path fill-rule="evenodd" class="s2" d="m59.7 56.3l4.2-3.7 2 2.3-4.1 3.7z"/>
	<path fill-rule="evenodd" class="s2" d="m42.4 27l6.3-0.3 0.2 3.1-6.3 0.3z"/>
	<path fill-rule="evenodd" class="s2" d="m54.4 51l5.9-3.9 1.8 2.8-5.8 3.9z"/>
	<path fill-rule="evenodd" class="s2" d="m49.7 44.1l5.7-2.8 1.4 2.9-5.6 2.8z"/>
	<path fill-rule="evenodd" class="s2" d="m45.4 36l5.9-1.3 0.7 3-5.9 1.3z"/>
	<path fill-rule="evenodd" class="s2" d="m39.8 19l6.3 0.2-0.2 3.1-6.2-0.2z"/>
	<path fill-rule="evenodd" class="s2" d="m40 11.4l6.5 1.3-0.6 3-6.5-1.3z"/>
	<path fill-rule="evenodd" class="s2" d="m42.7 4.9l6.2 1-0.5 3.1-6.2-1z"/>
	<path fill-rule="evenodd" class="s2" d="m44.2 74.3l-5.6-1.2 0.2 2.6 5.6 1.2z"/>
	<path fill-rule="evenodd" class="s2" d="m43.4 65.5l-4.8-0.2 0.7 2.7 4.8 0.2z"/>
	<path fill-rule="evenodd" class="s2" d="m30 34.8l-3.6 3.5 2.2 2.1 3.6-3.5z"/>
	<path fill-rule="evenodd" class="s2" d="m42 57.6l-5.7 0.6 1.2 2.9 5.7-0.6z"/>
	<path fill-rule="evenodd" class="s2" d="m39.6 49.9l-4.9 1.2 1.5 2.7 4.8-1.2z"/>
	<path fill-rule="evenodd" class="s2" d="m34.7 42.1l-3.9 2.4 2 2.4 3.9-2.4z"/>
	<path fill-rule="evenodd" class="s2" d="m24 29.5l-3.2 3.9 2.8 2.3 3.1-4z"/>
	<path fill-rule="evenodd" class="s2" d="m18.3 25.2l-2.1 4.2 2.6 1.7 2.1-4.3z"/>
	<path fill-rule="evenodd" class="s2" d="m13.5 21.9l-2.5 4.4 2.5 1.7 2.5-4.4z"/>
</svg>