<svg width="105" height="106" viewBox="0 0 105 106" fill="none" xmlns="http://www.w3.org/2000/svg">
<ellipse cx="52.4987" cy="53.3627" rx="38.6544" ry="38.6544" transform="rotate(-28.8129 52.4987 53.3627)" fill="#D9D9D9"/>
<path d="M44.7123 57.0126C55.0011 75.7179 51.3992 91.4656 51.3992 91.4656C52.3305 93.1591 28.9185 90.6971 18.6297 71.9918C8.34087 53.2865 18.7975 32.1949 19.729 33.8885C19.729 33.8885 34.4235 38.3073 44.7123 57.0126Z" fill="#4A90E2"/>
<path d="M58.0302 47.2632C48.2389 28.2927 55.9121 15.3411 55.9121 15.3411C54.9801 13.647 75.5007 15.0909 87.2992 36.4263C97.2394 54.4013 85.0815 76.4981 84.195 74.7806C84.195 74.7806 67.8215 66.2336 58.0302 47.2632Z" fill="#4A90E2"/>
<rect x="75.6357" y="73.6323" width="6.2857" height="3.08373" transform="rotate(-53.0557 75.6357 73.6323)" fill="white"/>
<rect x="69.7217" y="67.3132" width="5.58155" height="3.08373" transform="rotate(-41.9836 69.7217 67.3132)" fill="white"/>
<rect x="52.4431" y="38.0308" width="6.2857" height="3.08373" transform="rotate(-3.14965 52.4431 38.0308)" fill="white"/>
<rect x="64.4236" y="62.0493" width="7.03734" height="3.33196" transform="rotate(-34.0068 64.4236 62.0493)" fill="white"/>
<rect x="59.7427" y="55.1055" width="6.2857" height="3.21023" transform="rotate(-26.6478 59.7427 55.1055)" fill="white"/>
<rect x="55.4395" y="47.0413" width="6.02096" height="3.08373" transform="rotate(-13.0887 55.4395 47.0413)" fill="white"/>
<rect x="49.8459" y="29.9941" width="6.21006" height="3.08373" transform="rotate(1.96264 49.8459 29.9941)" fill="white"/>
<rect x="50.0366" y="22.3934" width="6.57183" height="3.08373" transform="rotate(11.2848 50.0366 22.3934)" fill="white"/>
<rect x="52.7056" y="15.9111" width="6.2857" height="3.08373" transform="rotate(9.10535 52.7056 15.9111)" fill="white"/>
<rect width="5.75133" height="2.6023" transform="matrix(-0.977612 -0.210414 0.0721153 0.997396 54.2004 85.2805)" fill="white"/>
<rect width="4.83694" height="2.75533" transform="matrix(-0.999504 -0.0315058 0.259099 0.965851 53.4124 76.4927)" fill="white"/>
<rect width="5.02564" height="3.08163" transform="matrix(-0.713584 0.700569 0.72397 0.689831 39.9644 45.7551)" fill="white"/>
<rect width="5.73271" height="3.08819" transform="matrix(-0.993753 0.111598 0.377052 0.926192 52.0317 68.6089)" fill="white"/>
<rect width="5.02852" height="3.06127" transform="matrix(-0.967626 0.252389 0.474354 0.880334 49.5781 60.8779)" fill="white"/>
<rect width="4.55547" height="3.04789" transform="matrix(-0.854435 0.519558 0.628526 0.777788 44.7397 53.1472)" fill="white"/>
<rect width="5.11103" height="3.54952" transform="matrix(-0.624344 0.78115 0.767989 0.640463 34.021 40.4514)" fill="white"/>
<rect width="4.7462" height="3.05701" transform="matrix(-0.441709 0.897158 0.839919 0.542712 28.3115 36.1802)" fill="white"/>
<rect width="5.07923" height="3.03237" transform="matrix(-0.486023 0.873946 0.824057 0.566507 23.5061 32.8772)" fill="white"/>
</svg>
