<svg width="83" height="71" viewBox="0 0 83 71" fill="none" xmlns="http://www.w3.org/2000/svg">
<path d="M21.125 0.667603C15.4531 0.667603 10.4 3.03948 6.58438 6.75198C2.87188 10.4645 0.5 15.5176 0.5 21.2926C0.5 26.9645 2.87188 32.0176 6.58438 35.8332L41.75 70.9988L76.9156 35.8332C80.6281 32.1207 83 27.0676 83 21.2926C83 15.6207 80.6281 10.5676 76.9156 6.75198C73.2031 3.03948 68.15 0.667603 62.375 0.667603C56.7031 0.667603 51.65 3.03948 47.8344 6.75198C44.1219 10.4645 41.75 15.5176 41.75 21.2926C41.75 15.6207 39.3781 10.5676 35.6656 6.75198C31.9531 3.03948 26.9 0.667603 21.125 0.667603Z" fill="#4A90E2"/>
</svg>
