<svg width="91" height="84" viewBox="0 0 91 84" fill="none" xmlns="http://www.w3.org/2000/svg">
<path d="M73 77.3612C67 87.9952 65 81.6148 47 79.488C37 81.6148 21 87.9326 21 77.3612C21 68.854 25 47.5861 45 43.3325C59 43.3325 73 66.7898 73 77.3612Z" fill="#4A90E2"/>
<path d="M24.3183 40.0761C27.7379 47.4106 26.4523 55.2482 21.4469 57.582C16.4415 59.9157 9.61161 55.8618 6.192 48.5273C2.77239 41.1928 4.05795 33.3552 9.06338 31.0215C14.0688 28.6878 20.8987 32.7417 24.3183 40.0761Z" fill="#4A90E2"/>
<path d="M41.6224 16.2707C44.1697 24.5339 41.2254 33.0925 35.4181 34.8827C29.6108 36.6729 24.51 30.8632 21.9627 22.5999C20.2466 17.0332 20.9414 5.92951 27.1457 3.8618C33.35 1.79409 39.075 8.00742 41.6224 16.2707Z" fill="#4A90E2"/>
<path d="M68.1229 22.2748C67.1194 30.8633 60.9721 37.5062 54.9362 36.801C48.9002 36.0958 46.5773 28.7217 47.5808 20.1332C48.2568 14.3473 53.3729 4.46805 59.884 5.07958C66.3952 5.69112 69.1264 13.6862 68.1229 22.2748Z" fill="#4A90E2"/>
<path d="M84.3384 46.9896C80.8101 54.1085 73.2204 57.8448 67.9732 55.2442C62.726 52.6435 62.8735 45.482 66.4018 38.3631C68.7787 33.5672 76.4225 26.684 82.1284 29.3599C87.8342 32.0359 87.8667 39.8707 84.3384 46.9896Z" fill="#4A90E2"/>
</svg>
